<svg width="29" height="32" viewBox="0 0 29 32" fill="none" xmlns="http://www.w3.org/2000/svg">
<path d="M9.66667 14.4H6.44444V17.6H9.66667V14.4ZM16.1111 14.4H12.8889V17.6H16.1111V14.4ZM22.5556 14.4H19.3333V17.6H22.5556V14.4ZM25.7778 3.2H24.1667V0H20.9444V3.2H8.05556V0H4.83333V3.2H3.22222C1.43389 3.2 0.0161111 4.64 0.0161111 6.4L0 28.8C0 29.6487 0.339483 30.4626 0.943767 31.0627C1.54805 31.6629 2.36764 32 3.22222 32H25.7778C27.55 32 29 30.56 29 28.8V6.4C29 4.64 27.55 3.2 25.7778 3.2ZM25.7778 28.8H3.22222V11.2H25.7778V28.8Z" fill="#585656"/>
</svg>
