<svg width="27" height="27" viewBox="0 0 27 27" fill="none" xmlns="http://www.w3.org/2000/svg">
<path d="M11.0401 7.73456C11.0401 8.5783 11.0401 9.39609 11.3063 10.1619C8.50889 13.4461 1.12284 22.1237 0.434856 22.7857C0.298121 22.9084 0.188738 23.0585 0.113818 23.2262C0.0388976 23.3939 0.000117777 23.5755 0 23.7592C0 24.3109 0.3375 24.8431 0.623077 25.1417C1.05144 25.5895 2.88173 27.2835 3.21923 26.959C4.21875 25.9854 4.41995 25.7258 4.82885 25.3234C5.44543 24.7198 4.76394 23.4866 4.97813 22.9869C5.19231 22.4871 5.41947 22.3898 5.78942 22.3119C6.15938 22.234 6.8149 22.5001 7.32764 22.5066C7.86635 22.5131 8.15841 22.2859 8.56082 21.9095C8.88534 21.6109 9.11899 21.3318 9.12548 20.897C9.13846 20.3129 8.29471 19.5405 8.92428 18.9239C9.55385 18.3073 10.4625 19.3263 11.131 19.2484C11.7995 19.1706 12.6108 18.2424 12.6952 17.8465C12.7796 17.4506 11.9358 16.4316 12.0656 15.854C12.1111 15.6593 12.507 15.205 12.8055 15.14C13.1041 15.0751 14.4281 15.5879 14.7267 15.523C15.0901 15.4451 15.512 15.0622 15.856 14.848C16.862 15.2828 17.7772 15.4581 18.9519 15.4581C23.3978 15.4581 27 11.9922 27 7.72157C27 3.45092 23.3978 0 18.9519 0C14.506 0 11.0401 3.4639 11.0401 7.73456ZM22.8462 6.23074C22.8462 6.64151 22.7243 7.04306 22.4961 7.38461C22.2679 7.72616 21.9435 7.99236 21.564 8.14956C21.1845 8.30676 20.7669 8.34788 20.364 8.26775C19.9612 8.18761 19.5911 7.9898 19.3006 7.69934C19.0102 7.40888 18.8124 7.03881 18.7322 6.63593C18.6521 6.23304 18.6932 5.81545 18.8504 5.43594C19.0076 5.05643 19.2738 4.73206 19.6154 4.50385C19.9569 4.27564 20.3585 4.15383 20.7692 4.15383C21.3201 4.15383 21.8483 4.37264 22.2378 4.76214C22.6273 5.15164 22.8462 5.67991 22.8462 6.23074Z" fill="#585656"/>
</svg>
