<svg width="31" height="25" viewBox="0 0 31 25" fill="none" xmlns="http://www.w3.org/2000/svg">
<path d="M31 7.2V19.9219C31.0001 21.219 30.5078 22.4669 29.6241 23.4097C28.7404 24.3526 27.5323 24.9188 26.2477 24.9922L25.9625 25H5.0375C3.75079 25.0001 2.51282 24.5038 1.57754 23.613C0.642268 22.7222 0.0805979 21.5044 0.00775018 20.2094L0 19.9219V7.2L14.9606 15.1C15.127 15.1879 15.3121 15.2338 15.5 15.2338C15.6879 15.2338 15.873 15.1879 16.0394 15.1L31 7.2ZM5.0375 3.68829e-08H25.9625C27.2111 -0.000151585 28.4154 0.467181 29.3416 1.31136C30.2678 2.15553 30.8499 3.31638 30.9752 4.56875L15.5 12.7406L0.0248 4.56875C0.144961 3.36611 0.686727 2.24612 1.55271 1.4101C2.4187 0.574076 3.55211 0.0768547 4.7492 0.00781272L5.0375 3.68829e-08H25.9625H5.0375Z" fill="#585656"/>
</svg>
