<svg width="80" height="80" viewBox="0 0 80 80" fill="none" xmlns="http://www.w3.org/2000/svg">
<path d="M40 0C34.7471 0 29.5457 1.03463 24.6927 3.04482C19.8396 5.05501 15.4301 8.00139 11.7157 11.7157C4.21427 19.2172 0 29.3913 0 40C0 50.6087 4.21427 60.7828 11.7157 68.2843C15.4301 71.9986 19.8396 74.945 24.6927 76.9552C29.5457 78.9654 34.7471 80 40 80C50.6087 80 60.7828 75.7857 68.2843 68.2843C75.7857 60.7828 80 50.6087 80 40C80 34.7471 78.9654 29.5457 76.9552 24.6927C74.945 19.8396 71.9986 15.4301 68.2843 11.7157C64.5699 8.00139 60.1604 5.05501 55.3073 3.04482C50.4543 1.03463 45.2529 0 40 0ZM40 25.56C46.28 29.6 53.68 32 61.68 32C64.8 32 67.8 31.64 70.68 30.96C71.52 33.8 72 36.84 72 40C72 57.64 57.64 72 40 72C28 72 17.56 65.36 12 55.56L19 48V44C19 42.6739 19.5268 41.4021 20.4645 40.4645C21.4021 39.5268 22.6739 39 24 39C25.3261 39 26.5979 39.5268 27.5355 40.4645C28.4732 41.4021 29 42.6739 29 44V48H40M56 39C54.6739 39 53.4021 39.5268 52.4645 40.4645C51.5268 41.4021 51 42.6739 51 44C51 45.3261 51.5268 46.5979 52.4645 47.5355C53.4021 48.4732 54.6739 49 56 49C57.3261 49 58.5979 48.4732 59.5355 47.5355C60.4732 46.5979 61 45.3261 61 44C61 42.6739 60.4732 41.4021 59.5355 40.4645C58.5979 39.5268 57.3261 39 56 39Z" fill="black"/>
</svg>
