<svg width="25" height="18" viewBox="0 0 25 18" fill="none" xmlns="http://www.w3.org/2000/svg">
<path d="M9.17411 9C9.17411 9.82006 9.51243 10.6065 10.1146 11.1864C10.7169 11.7663 11.5336 12.092 12.3853 12.092C13.237 12.092 14.0538 11.7663 14.656 11.1864C15.2582 10.6065 15.5965 9.82006 15.5965 9C15.5965 8.17994 15.2582 7.39348 14.656 6.81361C14.0538 6.23374 13.237 5.90798 12.3853 5.90798C11.5336 5.90798 10.7169 6.23374 10.1146 6.81361C9.51243 7.39348 9.17411 8.17994 9.17411 9ZM24.8344 8.28773C22.1164 2.77454 18.0078 0 12.5 0C6.98935 0 2.88361 2.77454 0.165564 8.29049C0.0565418 8.51278 0 8.75555 0 9.00138C0 9.24721 0.0565418 9.48998 0.165564 9.71227C2.88361 15.2255 6.99222 18 12.5 18C18.0106 18 22.1164 15.2255 24.8344 9.70951C25.0552 9.26227 25.0552 8.74325 24.8344 8.28773ZM12.3853 13.8589C9.59845 13.8589 7.33914 11.6834 7.33914 9C7.33914 6.31656 9.59845 4.1411 12.3853 4.1411C15.1722 4.1411 17.4315 6.31656 17.4315 9C17.4315 11.6834 15.1722 13.8589 12.3853 13.8589Z" fill="#585656"/>
</svg>
